<mxfile host="65bd71144e">
    <diagram id="rCJyFq-laMSMukkwUeTi" name="Page-1">
        <mxGraphModel dx="1488" dy="1139" grid="0" gridSize="10" guides="1" tooltips="1" connect="1" arrows="1" fold="1" page="1" pageScale="1" pageWidth="1169" pageHeight="827" math="0" shadow="0">
            <root>
                <mxCell id="0"/>
                <mxCell id="1" parent="0"/>
                <mxCell id="2" value="项目结构说明" style="swimlane;childLayout=stackLayout;resizeParent=1;resizeParentMax=0;startSize=36;horizontal=0;horizontalStack=1;fontSize=16;" vertex="1" parent="1">
                    <mxGeometry x="122" y="73" width="972" height="643" as="geometry"/>
                </mxCell>
                <mxCell id="3" value="基础架构" style="swimlane;startSize=30;fillColor=#60a917;fontColor=#ffffff;strokeColor=#2D7600;fontFamily=Verdana;fontSize=16;arcSize=15;" vertex="1" parent="2">
                    <mxGeometry x="36" width="182" height="643" as="geometry">
                        <mxRectangle x="36" width="37" height="643" as="alternateBounds"/>
                    </mxGeometry>
                </mxCell>
                <mxCell id="8" value="" style="edgeStyle=none;html=1;fontSize=14;" edge="1" parent="3" source="6" target="7">
                    <mxGeometry relative="1" as="geometry"/>
                </mxCell>
                <mxCell id="6" value="Ater.Web.Core" style="rounded=1;whiteSpace=wrap;html=1;fillColor=#008a00;strokeColor=#005700;fontColor=#ffffff;fontSize=14;" vertex="1" parent="3">
                    <mxGeometry x="26" y="46" width="120" height="44" as="geometry"/>
                </mxCell>
                <mxCell id="10" value="" style="edgeStyle=none;html=1;fontSize=14;" edge="1" parent="3" source="7" target="9">
                    <mxGeometry relative="1" as="geometry"/>
                </mxCell>
                <mxCell id="7" value="Ater.Web.Abstraction" style="whiteSpace=wrap;html=1;rounded=1;fillColor=#008a00;strokeColor=#005700;fontColor=#ffffff;fontSize=14;" vertex="1" parent="3">
                    <mxGeometry x="15.5" y="292" width="141" height="60" as="geometry"/>
                </mxCell>
                <mxCell id="9" value="Ater.Web.Extension" style="whiteSpace=wrap;html=1;rounded=1;fillColor=#008a00;strokeColor=#005700;fontColor=#ffffff;fontSize=14;" vertex="1" parent="3">
                    <mxGeometry x="15.5" y="420" width="143" height="60" as="geometry"/>
                </mxCell>
                <mxCell id="4" value="定义层" style="swimlane;startSize=30;fillColor=#1ba1e2;fontColor=#ffffff;strokeColor=#006EAF;fontFamily=Verdana;fontSize=16;" vertex="1" parent="2">
                    <mxGeometry x="218" width="248" height="643" as="geometry"/>
                </mxCell>
                <mxCell id="48" style="edgeStyle=orthogonalEdgeStyle;html=1;fontFamily=Verdana;fontSize=16;startSize=30;" edge="1" parent="4" source="12" target="17">
                    <mxGeometry relative="1" as="geometry"/>
                </mxCell>
                <mxCell id="51" style="edgeStyle=orthogonalEdgeStyle;html=1;entryX=0.5;entryY=0;entryDx=0;entryDy=0;fontFamily=Verdana;fontSize=16;startSize=30;exitX=1;exitY=0.5;exitDx=0;exitDy=0;" edge="1" parent="4" source="12" target="15">
                    <mxGeometry relative="1" as="geometry"/>
                </mxCell>
                <mxCell id="12" value="Entity" style="rounded=1;whiteSpace=wrap;html=1;fillColor=#1ba1e2;fontColor=#ffffff;strokeColor=#006EAF;fontSize=14;" vertex="1" parent="4">
                    <mxGeometry x="34" y="46" width="120" height="44" as="geometry"/>
                </mxCell>
                <mxCell id="15" value="Share" style="rounded=1;whiteSpace=wrap;html=1;fillColor=#1ba1e2;fontColor=#ffffff;strokeColor=#006EAF;fontSize=14;" vertex="1" parent="4">
                    <mxGeometry x="119" y="155" width="120" height="44" as="geometry"/>
                </mxCell>
                <mxCell id="17" value="EntityFramework" style="rounded=1;whiteSpace=wrap;html=1;fillColor=#1ba1e2;fontColor=#ffffff;strokeColor=#006EAF;fontSize=14;" vertex="1" parent="4">
                    <mxGeometry x="34" y="302" width="120" height="44" as="geometry"/>
                </mxCell>
                <mxCell id="5" value="业务实现层" style="swimlane;startSize=30;fillColor=#0050ef;fontColor=#ffffff;strokeColor=#001DBC;fontFamily=Verdana;fontSize=16;" vertex="1" parent="2">
                    <mxGeometry x="466" width="194" height="643" as="geometry"/>
                </mxCell>
                <mxCell id="20" value="Application" style="rounded=1;whiteSpace=wrap;html=1;fillColor=#0050ef;fontColor=#ffffff;strokeColor=#001DBC;fontSize=14;" vertex="1" parent="5">
                    <mxGeometry x="37" y="155" width="120" height="44" as="geometry"/>
                </mxCell>
                <mxCell id="14" value="" style="edgeStyle=none;html=1;fontSize=14;" edge="1" parent="2" source="6" target="12">
                    <mxGeometry relative="1" as="geometry"/>
                </mxCell>
                <mxCell id="18" value="" style="edgeStyle=none;html=1;fontSize=14;" edge="1" parent="2" source="7" target="17">
                    <mxGeometry relative="1" as="geometry"/>
                </mxCell>
                <mxCell id="21" style="edgeStyle=none;html=1;fontSize=14;" edge="1" parent="2" source="15" target="20">
                    <mxGeometry relative="1" as="geometry"/>
                </mxCell>
                <mxCell id="26" value="" style="edgeStyle=orthogonalEdgeStyle;html=1;fontSize=14;" edge="1" parent="2" source="20" target="25">
                    <mxGeometry relative="1" as="geometry"/>
                </mxCell>
                <mxCell id="41" style="edgeStyle=orthogonalEdgeStyle;html=1;entryX=0;entryY=0.5;entryDx=0;entryDy=0;fontFamily=Verdana;fontSize=16;startSize=30;" edge="1" parent="2" source="20" target="55">
                    <mxGeometry relative="1" as="geometry">
                        <mxPoint x="601" y="300" as="targetPoint"/>
                    </mxGeometry>
                </mxCell>
                <mxCell id="60" value="可选" style="edgeLabel;html=1;align=center;verticalAlign=middle;resizable=0;points=[];fontSize=16;fontFamily=Verdana;" vertex="1" connectable="0" parent="41">
                    <mxGeometry x="-0.5267" relative="1" as="geometry">
                        <mxPoint y="51" as="offset"/>
                    </mxGeometry>
                </mxCell>
                <mxCell id="45" style="edgeStyle=orthogonalEdgeStyle;html=1;entryX=0.5;entryY=1;entryDx=0;entryDy=0;fontFamily=Verdana;fontSize=16;startSize=30;" edge="1" parent="2" source="9" target="25">
                    <mxGeometry relative="1" as="geometry"/>
                </mxCell>
                <mxCell id="47" style="edgeStyle=orthogonalEdgeStyle;html=1;entryX=0;entryY=0.5;entryDx=0;entryDy=0;fontFamily=Verdana;fontSize=16;startSize=30;exitX=0.5;exitY=1;exitDx=0;exitDy=0;" edge="1" parent="2" source="9" target="53">
                    <mxGeometry relative="1" as="geometry">
                        <mxPoint x="747" y="530" as="targetPoint"/>
                    </mxGeometry>
                </mxCell>
                <mxCell id="50" style="edgeStyle=orthogonalEdgeStyle;html=1;entryX=0.5;entryY=1;entryDx=0;entryDy=0;fontFamily=Verdana;fontSize=16;startSize=30;" edge="1" parent="2" source="17" target="20">
                    <mxGeometry relative="1" as="geometry"/>
                </mxCell>
                <mxCell id="11" value="接口层" style="swimlane;startSize=30;fillColor=#6a00ff;fontColor=#ffffff;strokeColor=#3700CC;fontFamily=Verdana;fontSize=16;" vertex="1" parent="2">
                    <mxGeometry x="660" width="312" height="643" as="geometry"/>
                </mxCell>
                <mxCell id="25" value="Http.API" style="rounded=1;whiteSpace=wrap;html=1;fillColor=#6a00ff;fontColor=#ffffff;strokeColor=#3700CC;fontSize=14;" vertex="1" parent="11">
                    <mxGeometry x="148" y="155" width="120" height="44" as="geometry"/>
                </mxCell>
                <mxCell id="43" style="edgeStyle=orthogonalEdgeStyle;html=1;fontFamily=Verdana;fontSize=16;startSize=30;entryX=0;entryY=0.5;entryDx=0;entryDy=0;exitX=0.5;exitY=0;exitDx=0;exitDy=0;" edge="1" parent="11" source="55" target="25">
                    <mxGeometry relative="1" as="geometry">
                        <mxPoint x="1" y="176" as="targetPoint"/>
                        <mxPoint x="1" y="278" as="sourcePoint"/>
                    </mxGeometry>
                </mxCell>
                <mxCell id="53" value="Microservices" style="swimlane;whiteSpace=wrap;html=1;fontFamily=Verdana;fontSize=16;startSize=30;fillColor=#d80073;fontColor=#ffffff;strokeColor=#A50040;" vertex="1" parent="11">
                    <mxGeometry x="139" y="476" width="138" height="105" as="geometry"/>
                </mxCell>
                <mxCell id="54" value="&lt;span style=&quot;color: rgb(255, 255, 255); font-family: Helvetica; font-size: 14px;&quot;&gt;定义层&lt;br&gt;业务层&lt;br&gt;接口层&lt;/span&gt;" style="text;html=1;align=center;verticalAlign=middle;resizable=0;points=[];autosize=1;strokeColor=none;fillColor=none;fontSize=16;fontFamily=Verdana;" vertex="1" parent="53">
                    <mxGeometry x="39" y="30" width="60" height="71" as="geometry"/>
                </mxCell>
                <mxCell id="55" value="Modules" style="swimlane;whiteSpace=wrap;html=1;fontFamily=Verdana;fontSize=16;startSize=30;fillColor=#a20025;fontColor=#ffffff;strokeColor=#6F0000;" vertex="1" parent="11">
                    <mxGeometry x="29" y="265" width="111" height="104" as="geometry"/>
                </mxCell>
                <mxCell id="56" value="DTO&lt;br&gt;业务层&lt;br&gt;接口实现" style="text;html=1;align=center;verticalAlign=middle;resizable=0;points=[];autosize=1;strokeColor=none;fillColor=none;fontSize=16;fontFamily=Verdana;" vertex="1" parent="55">
                    <mxGeometry x="18" y="31" width="82" height="70" as="geometry"/>
                </mxCell>
                <mxCell id="59" style="edgeStyle=orthogonalEdgeStyle;html=1;entryX=0.5;entryY=1;entryDx=0;entryDy=0;fontFamily=Verdana;fontSize=16;startSize=30;" edge="1" parent="2" source="9" target="55">
                    <mxGeometry relative="1" as="geometry"/>
                </mxCell>
            </root>
        </mxGraphModel>
    </diagram>
</mxfile>